<?xml version="1.0" standalone="no"?><!DOCTYPE svg PUBLIC "-//W3C//DTD SVG 1.1//EN" "http://www.w3.org/Graphics/SVG/1.1/DTD/svg11.dtd"><svg t="1499695025865" class="icon" style="" viewBox="0 0 1024 1024" version="1.1" xmlns="http://www.w3.org/2000/svg" p-id="6725" xmlns:xlink="http://www.w3.org/1999/xlink" width="22" height="22"><defs><style type="text/css"></style></defs><path d="M438.857143 438.857143 72.822638 438.857143C32.910531 438.857143 0 471.604322 0 512 0 552.677327 32.603819 585.142857 72.822638 585.142857L438.857143 585.142857 438.857143 951.177362C438.857143 991.089469 471.604322 1024 512 1024 552.677327 1024 585.142857 991.396181 585.142857 951.177362L585.142857 585.142857 951.177362 585.142857C991.089469 585.142857 1024 552.395678 1024 512 1024 471.322673 991.396181 438.857143 951.177362 438.857143L585.142857 438.857143 585.142857 72.822638C585.142857 32.910531 552.395678 0 512 0 471.322673 0 438.857143 32.603819 438.857143 72.822638L438.857143 438.857143Z" p-id="6726" fill="#ffffff"></path></svg>