<?xml version="1.0" standalone="no"?><!DOCTYPE svg PUBLIC "-//W3C//DTD SVG 1.1//EN" "http://www.w3.org/Graphics/SVG/1.1/DTD/svg11.dtd"><svg t="1499695330831" class="icon" style="" viewBox="0 0 1024 1024" version="1.1" xmlns="http://www.w3.org/2000/svg" p-id="8609" xmlns:xlink="http://www.w3.org/1999/xlink" width="24" height="24"><defs><style type="text/css"></style></defs><path d="M118.101303 214.755132h788.647761c29.036313 0 52.577472 23.587208 52.577473 52.676733v71.695902H65.524854v-71.695902c0-29.090549 23.541159-52.676733 52.576449-52.676733zM537.250592 388.883985v223.873813h297.937646v74.614372H537.250592v223.886093h-49.649793V687.37217H189.662129v-74.614372h297.937646V388.883985H115.174648v519.443529c0 29.090549 23.541159 52.67571 52.576449 52.67571h689.349197c29.034267 0 52.575426-23.585161 52.575426-52.67571V388.883985H537.250592z" fill="#1296db" p-id="8610"></path><path d="M425.526021 65.510016c-61.703317 0-111.726617 50.117444-111.726617 111.936395 0 61.819974 50.022277 111.936395 111.726617 111.936395 61.702294 0 111.724571-50.116421 111.724571-111.936395 0-61.818951-50.022277-111.936395-111.724571-111.936395z m0 174.130899c-34.273595 0-62.075801-27.857465-62.0758-62.19348 0-34.350342 27.802206-62.192458 62.0758-62.192458 34.271548 0 62.074777 27.842115 62.074778 62.192458 0 34.336016-27.803229 62.193481-62.074778 62.19348z" fill="#1296db" p-id="8611"></path><path d="M599.326393 65.510016c-61.71662 0-111.725594 50.117444-111.725594 111.936395 0 61.819974 50.009997 111.936395 111.725594 111.936395 61.702294 0 111.724571-50.116421 111.72457-111.936395-0.001023-61.818951-50.022277-111.936395-111.72457-111.936395z m0 174.130899c-34.285874 0-62.075801-27.857465-62.075801-62.19348 0-34.350342 27.789926-62.192458 62.075801-62.192458 34.271548 0 62.074777 27.842115 62.074777 62.192458 0 34.336016-27.803229 62.193481-62.074777 62.19348z" fill="#1296db" p-id="8612"></path></svg>