<?xml version="1.0" standalone="no"?><!DOCTYPE svg PUBLIC "-//W3C//DTD SVG 1.1//EN" "http://www.w3.org/Graphics/SVG/1.1/DTD/svg11.dtd"><svg t="1499695316466" class="icon" style="" viewBox="0 0 1024 1024" version="1.1" xmlns="http://www.w3.org/2000/svg" p-id="7841" xmlns:xlink="http://www.w3.org/1999/xlink" width="24" height="24"><defs><style type="text/css"></style></defs><path d="M160 262.4h-64c-38.4 0-64-32-64-64v-64c0-38.4 25.6-64 64-64h64c38.4 0 64 32 64 64v64c0 38.4-32 64-64 64zM928 262.4H358.4c-32 0-64-25.6-64-64v-64c0-32 25.6-64 64-64h569.6c38.4 0 64 25.6 64 64v64c0 38.4-25.6 64-64 64zM160 595.2h-64c-38.4 0-64-25.6-64-64v-64c0-38.4 25.6-64 64-64h64c38.4 0 64 25.6 64 64v64c0 38.4-32 64-64 64zM928 595.2H358.4c-38.4 0-64-25.6-64-64v-64c0-38.4 25.6-64 64-64h569.6c38.4 0 64 25.6 64 64v64c0 38.4-25.6 64-64 64zM160 953.6h-64c-38.4 0-64-25.6-64-64v-64c0-38.4 25.6-64 64-64h64c38.4 0 64 25.6 64 64v64c0 32-32 64-64 64zM928 953.6H358.4c-38.4 0-64-25.6-64-64v-64c0-38.4 25.6-64 64-64h569.6c38.4 0 64 25.6 64 64v64c0 32-25.6 64-64 64z" fill="#1296db" p-id="7842"></path></svg>